<svg xmlns="http://www.w3.org/2000/svg" viewBox="0 0 150 150">
  <defs>
    <linearGradient id="flowerGrad" x1="0" y1="0" x2="0" y2="1">
      <stop offset="0%" stop-color="#6DDCB4" />
      <stop offset="100%" stop-color="#1A7A6A" />
    </linearGradient>
  </defs>
  <rect width="150" height="150" rx="24" fill="#0D1F1C" />
  <g opacity="1" transform="rotate(0 75 75)">
    <rect x="60" y="12" width="30" height="63" rx="14" fill="url(#flowerGrad)" />
  </g>
  <g opacity="0.85" transform="rotate(60 75 75)">
    <rect x="60" y="12" width="30" height="63" rx="14" fill="url(#flowerGrad)" />
  </g>
  <g opacity="0.7" transform="rotate(120 75 75)">
    <rect x="60" y="12" width="30" height="63" rx="14" fill="url(#flowerGrad)" />
  </g>
  <g opacity="1" transform="rotate(180 75 75)">
    <rect x="60" y="12" width="30" height="63" rx="14" fill="url(#flowerGrad)" />
  </g>
  <g opacity="0.85" transform="rotate(240 75 75)">
    <rect x="60" y="12" width="30" height="63" rx="14" fill="url(#flowerGrad)" />
  </g>
  <g opacity="0.7" transform="rotate(300 75 75)">
    <rect x="60" y="12" width="30" height="63" rx="14" fill="url(#flowerGrad)" />
  </g>
  <circle cx="75" cy="75" r="14" fill="#0D1F1C" />
  <circle cx="70" cy="70" r="5.5" fill="#ffffff" fill-opacity="0.3" />
</svg>
